<svg width="2000" height="320" viewBox="0 0 250 40" fill="none" xmlns="http://www.w3.org/2000/svg">
<path d="M36.2559 19.6916C35.1123 18.8812 33.7619 18.2401 32.229 17.7684C30.6961 17.2966 29.0781 16.8612 27.3748 16.4741L20.6471 14.9501C19.6252 14.7082 18.6641 14.4663 17.7881 14.2365C16.9 14.0067 16.1457 13.7405 15.5131 13.4503C14.8805 13.1479 14.3817 12.7971 14.0289 12.3979C13.676 11.9988 13.4936 11.4787 13.4936 10.8497C13.4936 9.83368 14.0167 8.987 15.0508 8.29755C16.0849 7.6081 17.6665 7.26943 19.7833 7.26943C20.6958 7.26943 21.5595 7.32991 22.3746 7.45086C23.1898 7.57182 23.8954 7.81373 24.5158 8.1645C25.1363 8.51527 25.6473 8.98699 26.0487 9.57968C26.4502 10.1724 26.6935 10.9707 26.7665 11.9504H39.0906C38.9811 8.1645 37.3752 5.22528 34.2729 3.13275C31.1706 1.05231 26.4381 0 20.0875 0C17.4475 0 14.9413 0.241911 12.6054 0.713638C10.2574 1.18536 8.21356 1.92319 6.46168 2.92712C4.70979 3.93105 3.33504 5.21318 2.33744 6.77351C1.32767 8.33384 0.828871 10.2207 0.828871 12.4342C0.828871 14.1881 1.19385 15.6516 1.91163 16.8249C2.64159 17.9982 3.59052 18.9779 4.77061 19.7762C5.95071 20.5745 7.30112 21.2035 8.79752 21.6994C10.2939 22.1953 11.8268 22.6066 13.3841 22.9574L20.3794 24.5298C21.4014 24.7717 22.3503 25.0136 23.2141 25.2434C24.0779 25.4732 24.82 25.7393 25.4405 26.0296C26.0609 26.332 26.5354 26.6949 26.876 27.1303C27.2167 27.5658 27.3748 28.1222 27.3748 28.7874C27.3748 29.3196 27.2532 29.8155 26.9977 30.2873C26.7544 30.759 26.3286 31.1823 25.7446 31.5452C25.1606 31.9081 24.3942 32.1984 23.4331 32.4161C22.472 32.6217 21.2919 32.7306 19.8806 32.7306C18.8587 32.7306 17.9098 32.6338 17.0338 32.4403C16.17 32.2467 15.4158 31.9202 14.771 31.4726C14.1383 31.013 13.6152 30.4082 13.2259 29.6583C12.8366 28.9084 12.6298 27.9528 12.5933 26.7917H0.111084C0.111084 28.4366 0.366569 30.0575 0.877536 31.6299C1.3885 33.2023 2.33744 34.6175 3.73652 35.8633C5.13559 37.1092 7.0943 38.1131 9.63697 38.863C12.1796 39.6129 15.4888 40 19.5887 40C22.3382 40 24.9538 39.8065 27.4235 39.4194C29.8932 39.0324 32.0587 38.355 33.9322 37.3995C35.8058 36.4318 37.2779 35.1618 38.3728 33.5652C39.4677 31.9686 40.0152 29.9607 40.0152 27.5416C40.0152 25.6184 39.6745 24.0218 38.9811 22.7759C38.2876 21.5301 37.3752 20.502 36.2194 19.7037L36.2559 19.6916Z" fill="#EBEBEB"/>
<path d="M85.2359 5.5637C83.3258 3.79775 80.8926 2.43095 77.9363 1.46331C74.9679 0.495664 71.4154 0.0118408 67.2425 0.0118408C63.4346 0.0118408 60.0768 0.471473 57.157 1.37864C54.2494 2.28581 51.7919 3.60422 49.7967 5.32179C47.8014 7.03936 46.2929 9.13189 45.2709 11.6115C44.249 14.079 43.738 16.8851 43.738 20.0058C43.738 22.9571 44.1638 25.6544 45.0033 28.1098C45.8549 30.5652 47.2053 32.6819 49.0789 34.4479C50.9524 36.2138 53.3734 37.5927 56.3541 38.5483C59.3347 39.5159 62.9601 39.9997 67.2304 39.9997C71.0018 39.9997 74.3596 39.5401 77.2794 38.6329C80.2114 37.7258 82.6689 36.3953 84.6641 34.6656C86.6593 32.9238 88.1678 30.8313 89.1898 28.3759C90.2117 25.9205 90.7227 23.1385 90.7227 20.0058C90.7227 17.0545 90.2847 14.3572 89.3966 11.9018C88.5085 9.44637 87.1216 7.32965 85.2115 5.5637H85.2359ZM77.3524 24.844C76.9631 26.3318 76.3426 27.6139 75.5032 28.6904C74.6637 29.7669 73.5566 30.6136 72.194 31.2305C70.8315 31.8473 69.1891 32.1497 67.2425 32.1497C65.296 32.1497 63.5441 31.8473 62.1937 31.2305C60.8311 30.6257 59.7362 29.779 58.9089 28.6904C58.0816 27.6018 57.4855 26.3197 57.1083 24.844C56.7434 23.3563 56.5487 21.7476 56.5487 19.9937C56.5487 18.2398 56.7555 16.6311 57.157 15.1434C57.5585 13.6556 58.1911 12.3735 59.0671 11.297C59.943 10.2205 61.0379 9.3617 62.4005 8.75693C63.7631 8.14005 65.369 7.83767 67.2425 7.83767C69.2134 7.83767 70.8801 8.14005 72.2427 8.75693C73.6053 9.3738 74.7002 10.2084 75.5518 11.2728C76.4034 12.3372 77.0117 13.6072 77.3767 15.095C77.7417 16.5828 77.9363 18.2157 77.9363 19.9937C77.9363 21.7717 77.7417 23.3563 77.3524 24.844Z" fill="#EBEBEB"/>
<path d="M129.264 28.9926L112.646 1.00349H95.6013V38.9956H106.246V11.0065L122.853 38.9956H139.897V1.00349H129.264V28.9926Z" fill="#EBEBEB"/>
<path d="M179.898 28.9926L163.28 1.00349H146.248V38.9956H156.881V11.0065L173.499 38.9956H190.531V1.00349H179.898V28.9926Z" fill="#EBEBEB"/>
<path d="M214.973 1.00349L194.972 38.9835H207.564L211.055 31.7746H232.589L235.971 38.9835H249.889L230.156 1.00349H214.973ZM214.559 24.4205L221.968 9.01075L229.11 24.4205H214.559Z" fill="#EBEBEB"/>
</svg>
